<?xml version="1.0" standalone="no"?>
<!DOCTYPE svg PUBLIC "-//W3C//DTD SVG 20010904//EN"
 "http://www.w3.org/TR/2001/REC-SVG-20010904/DTD/svg10.dtd">
<svg version="1.0" xmlns="http://www.w3.org/2000/svg"
 width="500.000000pt" height="500.000000pt" viewBox="0 0 500.000000 500.000000"
 preserveAspectRatio="xMidYMid meet">

<g transform="translate(0.000000,500.000000) scale(0.100000,-0.100000)"
fill="#000000" stroke="none">
<path d="M2450 4160 c-275 -34 -542 -132 -762 -279 -511 -342 -801 -908 -775
-1516 10 -218 45 -381 129 -592 163 -410 531 -778 941 -941 480 -191 987 -173
1436 53 596 298 961 895 961 1570 l0 105 -665 0 c-366 0 -665 2 -665 5 0 3
115 184 256 402 142 219 257 404 258 412 1 7 -41 41 -92 74 -79 51 -95 58
-107 46 -7 -8 -146 -221 -310 -474 l-296 -460 -452 -5 -452 -5 0 -120 0 -120
368 -5 368 -5 -187 -289 c-103 -160 -187 -297 -188 -305 -1 -8 40 -41 92 -74
79 -51 95 -58 107 -46 7 8 115 173 240 367 l227 352 624 0 624 0 0 -34 c0 -54
-29 -193 -62 -296 -145 -451 -514 -824 -955 -964 -175 -55 -274 -69 -468 -69
-199 0 -306 16 -479 74 -436 145 -790 499 -935 935 -58 173 -74 280 -74 479 0
199 16 306 74 479 145 436 499 790 935 935 169 57 281 74 474 75 254 1 433
-38 648 -141 51 -24 96 -41 101 -39 10 7 111 182 111 194 0 15 -211 110 -323
147 -160 52 -306 76 -492 80 -88 2 -194 0 -235 -5z"/>
<path d="M3562 3769 c-34 -50 -62 -95 -62 -99 0 -6 81 -74 142 -119 22 -16 29
-11 120 91 l59 67 -37 33 c-45 40 -147 118 -155 118 -3 0 -33 -41 -67 -91z"/>
</g>
</svg>
